<?xml version="1.0" standalone="no"?>
<!DOCTYPE svg PUBLIC "-//W3C//DTD SVG 20010904//EN"
 "http://www.w3.org/TR/2001/REC-SVG-20010904/DTD/svg10.dtd">
<svg version="1.0" xmlns="http://www.w3.org/2000/svg"
 width="288.000000pt" height="262.000000pt" viewBox="0 0 288.000000 262.000000"
 preserveAspectRatio="xMidYMid meet">

<g transform="translate(0.000000,262.000000) scale(0.100000,-0.100000)"
fill="#000000" stroke="none">
<path d="M1471 2219 c-303 -34 -574 -134 -838 -308 -129 -85 -157 -114 -198
-203 -35 -76 -41 -161 -19 -268 15 -71 19 -160 23 -540 l6 -455 464 -3 463 -2
520 212 c416 171 520 217 523 233 2 11 9 178 15 372 5 193 15 385 22 426 42
275 -164 465 -572 527 -106 16 -310 20 -409 9z m374 -70 c205 -25 356 -81 447
-167 77 -72 93 -109 91 -217 -1 -85 -14 -389 -31 -714 l-7 -144 -475 -193
c-261 -107 -476 -194 -477 -194 -2 0 -3 158 -3 351 l0 352 43 86 c42 85 42 87
42 196 0 103 -2 114 -31 175 -43 89 -93 143 -166 179 -70 35 -144 41 -204 16
-19 -8 -61 -42 -93 -76 l-58 -63 -53 57 c-30 33 -70 63 -96 74 -24 10 -44 21
-44 25 0 12 253 135 343 167 254 89 522 120 772 90z m-594 -350 c19 -10 52
-36 72 -58 105 -117 119 -261 39 -415 l-37 -71 4 -372 3 -373 -411 0 -411 0 0
405 c0 375 -2 412 -21 498 -38 169 -13 286 80 370 36 32 47 37 91 37 64 0 115
-26 159 -80 18 -23 49 -48 67 -56 45 -19 71 -6 141 70 30 32 64 58 80 62 15 3
33 7 38 9 18 5 69 -7 106 -26z"/>
<path d="M1895 1459 c-203 -71 -375 -137 -382 -145 -13 -18 -8 -40 12 -48 15
-5 749 249 773 267 19 15 10 52 -13 54 -11 1 -186 -56 -390 -128z"/>
</g>
</svg>
