<?xml version="1.0" standalone="no"?>
<!DOCTYPE svg PUBLIC "-//W3C//DTD SVG 20010904//EN"
 "http://www.w3.org/TR/2001/REC-SVG-20010904/DTD/svg10.dtd">
<svg version="1.0" xmlns="http://www.w3.org/2000/svg"
 width="288.000000pt" height="254.000000pt" viewBox="0 0 288.000000 254.000000"
 preserveAspectRatio="xMidYMid meet">

<g transform="translate(0.000000,254.000000) scale(0.100000,-0.100000)"
fill="#000000" stroke="none">
<path d="M1834 2302 c-6 -4 -17 -25 -23 -47 -7 -22 -36 -111 -64 -198 l-52
-158 -65 8 c-118 15 -328 9 -415 -11 -105 -24 -192 -65 -235 -110 l-35 -37 -3
-117 -4 -116 -39 -45 c-80 -90 -123 -218 -140 -406 -22 -256 38 -441 188 -574
64 -57 168 -111 263 -138 93 -25 367 -25 460 0 329 91 490 351 451 726 -19
182 -63 305 -141 393 l-40 46 0 101 c0 108 -12 152 -48 184 l-21 19 44 126
c24 70 59 163 79 206 20 44 34 87 31 96 -9 28 -78 60 -131 60 -27 0 -54 -4
-60 -8z m102 -70 c14 -9 -11 -72 -29 -71 -35 2 -44 14 -35 47 6 24 14 32 31
32 12 0 27 -4 33 -8z m-62 -138 c22 -8 8 -34 -20 -34 -23 0 -32 18 -17 33 8 9
17 9 37 1z m-28 -121 c-3 -10 -27 -83 -54 -162 l-48 -144 -39 -14 c-21 -7 -64
-16 -94 -19 -46 -5 -54 -4 -43 7 18 19 15 43 -7 63 -42 38 -94 -22 -56 -64 18
-20 17 -20 -52 -20 -39 0 -97 3 -131 6 -58 6 -60 8 -52 29 13 33 -9 58 -45 53
-24 -2 -31 -8 -33 -30 -4 -32 -11 -34 -54 -12 l-32 17 38 19 c88 45 304 65
429 38 54 -11 58 -14 53 -35 -4 -15 0 -29 10 -39 35 -36 48 -17 103 145 64
188 59 179 88 179 19 0 23 -4 19 -17z m-208 -139 c18 -4 31 -11 29 -18 -5 -14
-36 -13 -150 3 -155 23 -369 -17 -442 -80 -46 -40 -47 -77 -4 -113 119 -101
619 -101 739 0 26 22 30 33 28 65 -2 39 6 58 20 45 4 -4 9 -52 10 -106 l4 -99
-30 -15 c-53 -27 -195 -64 -296 -76 -139 -16 -271 -1 -433 51 l-93 30 0 104
c0 102 0 103 30 128 16 14 54 34 83 45 46 18 77 25 197 46 31 6 263 -2 308
-10z m-539 -414 c236 -78 477 -76 705 6 39 14 77 26 85 27 23 3 89 -92 116
-168 35 -98 46 -178 46 -318 0 -194 -36 -292 -147 -404 -115 -114 -243 -158
-464 -158 -160 0 -226 13 -335 65 -112 54 -212 164 -250 279 -51 153 -31 440
40 586 30 62 83 128 99 121 6 -3 53 -19 105 -36z"/>
<path d="M1384 1729 c-3 -6 -16 -8 -29 -5 -15 4 -31 -1 -46 -13 -21 -16 -22
-22 -11 -45 13 -29 52 -36 72 -11 8 10 17 12 30 5 37 -20 78 38 48 68 -15 15
-55 16 -64 1z"/>
<path d="M956 1347 c-42 -72 -58 -128 -63 -227 -5 -104 5 -150 35 -150 32 0
39 18 34 89 -6 85 10 159 50 238 25 52 29 65 18 78 -22 27 -48 17 -74 -28z"/>
<path d="M978 709 c-36 -21 -16 -79 27 -79 43 0 59 44 27 73 -21 19 -30 20
-54 6z"/>
<path d="M1066 664 c-21 -20 -20 -37 2 -57 33 -30 72 -15 72 28 0 42 -44 59
-74 29z"/>
<path d="M1112 568 c-15 -15 -15 -51 0 -66 15 -15 51 -15 66 0 28 28 7 78 -33
78 -12 0 -26 -5 -33 -12z"/>
</g>
</svg>
