<?xml version="1.0" standalone="no"?>
<!DOCTYPE svg PUBLIC "-//W3C//DTD SVG 20010904//EN"
 "http://www.w3.org/TR/2001/REC-SVG-20010904/DTD/svg10.dtd">
<svg version="1.0" xmlns="http://www.w3.org/2000/svg"
 width="373.000000pt" height="282.000000pt" viewBox="0 0 373.000000 282.000000"
 preserveAspectRatio="xMidYMid meet">

<g transform="translate(0.000000,282.000000) scale(0.100000,-0.100000)"
fill="#000000" stroke="none">
<path d="M1252 2488 c-8 -8 -12 -53 -12 -138 l0 -127 -85 -184 -85 -184 0
-758 c0 -504 3 -765 10 -778 10 -19 30 -19 790 -19 760 0 780 0 790 19 7 13
10 274 10 778 l0 758 -85 184 -85 184 0 127 c0 85 -4 130 -12 138 -17 17
-1219 17 -1236 0z m1176 -145 l-3 -88 -555 0 -555 0 -3 88 -3 87 561 0 561 0
-3 -87z m78 -303 c35 -74 63 -141 63 -147 1 -10 -145 -13 -699 -13 -433 0
-700 4 -700 9 0 9 97 228 122 274 8 16 44 17 580 15 l571 -3 63 -135z m84
-765 l0 -535 -720 0 -720 0 0 535 0 535 720 0 720 0 0 -535z m0 -755 l0 -150
-720 0 -720 0 0 150 0 150 720 0 720 0 0 -150z"/>
<path d="M1601 1694 c-25 -32 -35 -82 -27 -134 l6 -40 -104 0 c-118 0 -132 -7
-121 -62 16 -75 74 -150 130 -168 32 -10 33 -12 37 -83 3 -40 12 -87 22 -105
11 -21 18 -60 19 -105 2 -84 20 -116 83 -147 36 -18 60 -20 224 -20 164 0 188
2 224 20 63 31 81 63 83 147 1 45 8 84 19 105 10 18 19 65 22 105 4 71 5 73
37 83 56 18 114 93 130 168 12 55 -3 62 -127 62 -108 0 -109 0 -97 21 16 31 6
115 -18 147 -31 42 -56 40 -77 -6 -10 -21 -28 -52 -41 -68 l-23 -29 -132 0
-133 -1 -27 38 c-15 20 -33 51 -40 68 -15 37 -42 39 -69 4z m79 -156 c0 -18
-23 -2 -32 22 -9 23 -8 23 12 5 11 -10 20 -22 20 -27z m408 17 c-10 -23 -28
-34 -28 -18 0 7 31 43 36 43 2 0 -2 -11 -8 -25z m-91 -68 c62 -32 116 -93 137
-155 19 -53 21 -136 5 -180 -11 -31 -11 -31 -37 -14 -23 15 -54 17 -232 17
-178 0 -209 -2 -232 -17 -26 -17 -26 -17 -37 14 -16 44 -14 127 5 180 27 81
101 148 194 179 46 15 142 3 197 -24z m-419 -44 c-2 -5 -13 -27 -24 -50 -10
-24 -25 -43 -32 -43 -19 0 -82 65 -82 84 0 13 13 16 71 16 39 0 69 -3 67 -7z
m722 -9 c0 -19 -63 -84 -81 -84 -8 0 -23 19 -33 43 -11 23 -22 45 -24 50 -2 4
28 7 67 7 58 0 71 -3 71 -16z m-214 -377 c36 -42 33 -98 -7 -131 -30 -26 -32
-26 -209 -26 -177 0 -179 0 -209 26 -25 20 -31 34 -31 64 0 43 29 86 63 93 12
3 100 4 195 4 l174 -2 24 -28z"/>
<path d="M1714 1379 c-14 -15 -19 -36 -19 -74 0 -87 59 -126 104 -69 62 79
-20 215 -85 143z"/>
<path d="M1941 1374 c-43 -55 -14 -164 43 -164 38 0 61 35 61 95 0 87 -59 126
-104 69z"/>
</g>
</svg>
