<?xml version="1.0" standalone="no"?>
<!DOCTYPE svg PUBLIC "-//W3C//DTD SVG 20010904//EN"
 "http://www.w3.org/TR/2001/REC-SVG-20010904/DTD/svg10.dtd">
<svg version="1.0" xmlns="http://www.w3.org/2000/svg"
 width="373.000000pt" height="282.000000pt" viewBox="0 0 373.000000 282.000000"
 preserveAspectRatio="xMidYMid meet">

<g transform="translate(0.000000,282.000000) scale(0.100000,-0.100000)"
fill="#000000" stroke="none">
<path d="M2035 2494 c-190 -37 -328 -135 -396 -277 l-29 -62 0 -921 c0 -829 2
-923 16 -935 24 -20 203 3 315 41 155 52 243 117 300 222 l34 63 3 929 c2 685
-1 932 -9 942 -15 18 -139 17 -234 -2z m136 -92 c-47 -92 -181 -170 -351 -204
-55 -11 -103 -18 -106 -15 -3 3 0 16 7 29 68 129 216 203 457 227 9 1 7 -10
-7 -37z m20 -1772 c-6 -19 -22 -48 -35 -65 l-25 -30 -1 854 0 855 33 27 32 27
3 -817 c2 -538 -1 -828 -7 -851z m-141 697 l0 -863 -35 -17 -35 -17 0 868 0
868 28 11 c15 6 30 11 35 12 4 1 7 -387 7 -862z m-140 -52 l0 -865 -26 -10
c-58 -23 -54 -87 -52 857 l3 868 30 6 c17 4 33 7 38 8 4 0 7 -388 7 -864z
m-150 -35 l0 -870 -35 0 -35 0 0 863 c0 475 3 867 7 870 3 4 19 7 35 7 l28 0
0 -870z"/>
<path d="M851 2215 c-22 -20 -52 -61 -67 -91 -23 -47 -26 -63 -21 -114 3 -35
14 -76 26 -96 l22 -36 -26 -51 c-32 -66 -33 -123 -1 -170 l24 -35 -24 -48
c-32 -64 -32 -134 0 -198 l24 -48 -21 -42 c-31 -58 -31 -166 0 -218 l22 -38
-20 -34 c-40 -69 -35 -180 12 -247 18 -25 17 -27 -8 -89 -49 -121 -39 -237 27
-329 44 -61 64 -54 110 37 43 84 79 126 132 153 124 64 228 11 272 -138 22
-75 29 -87 52 -91 25 -4 97 66 126 121 32 61 31 147 -3 208 -25 45 -26 47 -8
70 43 57 45 163 4 209 -15 16 -14 21 7 61 32 61 31 158 -1 215 l-23 40 23 39
c32 54 33 153 1 213 l-22 43 22 42 c33 63 31 158 -6 221 l-27 47 24 62 c48
122 44 208 -16 308 -25 42 -38 54 -57 54 -20 0 -30 -11 -56 -62 -59 -118 -120
-173 -211 -188 -103 -16 -168 46 -215 205 -17 60 -43 64 -97 15z m107 -214
l20 -25 -56 -23 c-32 -13 -58 -23 -58 -23 -5 0 -24 60 -25 80 -4 45 1 65 22
100 l21 34 28 -59 c16 -33 37 -71 48 -84z m500 10 c-3 -45 -14 -85 -34 -126
-24 -50 -40 -67 -93 -102 -120 -79 -281 -127 -406 -121 -57 3 -61 5 -76 36
-31 62 8 139 92 183 39 20 139 39 205 39 95 0 204 70 261 167 l26 45 15 -28
c10 -19 13 -47 10 -93z m-13 -281 c17 -33 20 -96 5 -134 -5 -14 -35 -46 -67
-71 -125 -98 -279 -155 -425 -158 -76 -2 -81 -1 -100 24 -26 34 -28 112 -4
157 15 29 20 32 65 32 140 0 330 58 442 134 35 25 65 45 66 45 1 1 9 -12 18
-29z m13 -349 c6 -71 -11 -104 -82 -157 -127 -96 -253 -143 -403 -151 l-101
-6 -18 34 c-24 46 -22 123 3 158 19 24 27 26 114 32 151 10 282 53 400 133 64
43 79 36 87 -43z m-12 -243 c11 -22 15 -48 12 -87 -5 -51 -9 -58 -52 -98 -116
-105 -289 -175 -440 -177 -85 -1 -89 0 -108 25 -25 33 -27 112 -5 156 16 29
18 30 109 36 51 3 122 14 158 23 80 20 211 81 265 122 22 17 41 31 42 31 1 1
10 -13 19 -31z m4 -287 c32 -61 -15 -157 -96 -193 -26 -11 -96 -25 -165 -33
-160 -19 -222 -53 -290 -158 -21 -32 -40 -54 -43 -49 -3 5 -10 28 -15 53 -11
50 1 123 30 181 18 35 21 37 86 42 154 14 331 75 433 150 43 31 47 31 60 7z
m5 -334 c0 -45 -5 -70 -19 -91 l-20 -28 -29 58 c-16 33 -38 69 -50 81 -24 27
-26 24 38 50 67 27 80 16 80 -70z"/>
<path d="M2698 1451 c-163 -53 -276 -177 -325 -361 -25 -91 -24 -329 1 -420
53 -193 180 -323 358 -365 183 -43 241 4 242 200 1 117 -19 183 -65 216 -33
24 -64 78 -74 131 -11 59 18 140 69 190 59 59 71 94 71 208 0 105 -21 179 -58
205 -30 21 -147 19 -219 -4z m70 -98 c-17 -61 -6 -202 20 -253 l22 -44 -23
-46 c-32 -64 -31 -197 1 -257 l22 -43 -22 -42 c-19 -36 -23 -59 -23 -143 0
-55 3 -112 8 -128 7 -26 6 -27 -20 -21 -61 14 -150 63 -194 107 -90 92 -129
212 -129 402 0 258 81 408 259 481 82 34 92 33 79 -13z m123 0 c22 -68 8 -243
-21 -243 -18 0 -35 69 -34 145 1 121 30 173 55 98z m0 -740 c22 -68 8 -243
-21 -243 -18 0 -35 69 -34 145 1 121 30 173 55 98z"/>
</g>
</svg>
