<?xml version="1.0" standalone="no"?>
<!DOCTYPE svg PUBLIC "-//W3C//DTD SVG 20010904//EN"
 "http://www.w3.org/TR/2001/REC-SVG-20010904/DTD/svg10.dtd">
<svg version="1.0" xmlns="http://www.w3.org/2000/svg"
 width="373.000000pt" height="282.000000pt" viewBox="0 0 373.000000 282.000000"
 preserveAspectRatio="xMidYMid meet">

<g transform="translate(0.000000,282.000000) scale(0.100000,-0.100000)"
fill="#000000" stroke="none">
<path d="M1715 2260 c-25 -17 -39 -19 -86 -14 -54 6 -58 5 -96 -30 -35 -31
-47 -36 -91 -36 -48 0 -53 -3 -87 -44 -25 -30 -46 -46 -69 -50 -46 -9 -83 -40
-91 -77 -5 -21 -17 -37 -38 -48 -18 -9 -45 -30 -62 -46 -16 -17 -55 -41 -85
-53 -79 -32 -146 -85 -171 -134 -20 -39 -21 -53 -16 -182 6 -180 35 -298 112
-453 43 -88 70 -127 129 -190 40 -43 98 -94 129 -113 39 -25 58 -45 67 -70 47
-134 165 -230 347 -282 68 -20 101 -23 263 -23 204 0 260 10 379 66 112 52
196 139 231 239 9 25 28 45 67 70 31 19 88 70 128 112 57 60 85 101 129 190
81 162 107 266 112 453 5 143 4 152 -18 190 -26 45 -108 106 -177 132 -25 9
-60 31 -76 48 -17 16 -44 37 -62 46 -21 11 -33 27 -38 48 -8 37 -45 68 -91 77
-23 4 -44 20 -69 50 -34 41 -39 44 -87 44 -44 0 -56 5 -91 36 -38 35 -42 36
-94 30 -46 -5 -61 -3 -89 15 -28 17 -43 20 -77 14 -51 -8 -98 -8 -157 0 -36 5
-51 2 -75 -15z m95 -65 c33 -19 84 -19 120 0 28 15 32 14 70 -11 35 -23 46
-26 91 -20 47 6 53 5 85 -24 28 -24 44 -30 82 -30 44 0 50 -3 85 -45 30 -35
47 -46 79 -51 34 -6 42 -12 55 -43 19 -47 40 -70 79 -86 27 -11 32 -19 38 -62
5 -38 14 -57 40 -82 32 -31 34 -36 29 -85 -4 -38 -1 -61 12 -85 20 -40 18 -42
-75 -72 -196 -62 -390 -84 -730 -84 -340 0 -534 22 -730 84 -93 30 -95 32 -75
71 13 25 16 47 11 85 -5 49 -4 53 29 85 27 26 36 45 41 83 6 43 11 51 38 62
39 16 60 39 79 86 13 31 21 37 55 43 32 5 49 16 79 51 35 42 41 45 85 45 38 0
54 6 82 30 31 28 38 30 88 24 46 -5 57 -2 88 20 41 30 38 29 70 11z m-787
-427 c-29 -32 -35 -59 -25 -106 8 -32 6 -46 -8 -67 l-17 -26 -37 34 c-59 56
-45 104 47 157 62 36 67 37 40 8z m1798 -56 c29 -38 24 -70 -18 -109 l-36 -35
-18 29 c-15 24 -17 35 -8 66 12 44 5 72 -25 106 -20 23 -19 23 32 -5 30 -15
62 -39 73 -52z m-1708 -282 c87 -30 234 -61 382 -82 56 -8 197 -13 375 -13
178 0 319 5 375 13 240 34 407 80 531 145 l67 36 -6 -67 c-11 -109 -43 -220
-98 -331 -43 -87 -65 -118 -133 -186 -115 -116 -232 -179 -417 -226 -108 -27
-414 -38 -540 -19 -229 33 -431 138 -555 288 -101 123 -177 310 -191 469 l-6
72 67 -35 c37 -20 104 -49 149 -64z m449 -792 c88 -19 133 -22 308 -22 216 0
338 17 461 63 27 11 49 16 49 11 0 -25 -89 -103 -153 -135 -99 -48 -195 -66
-357 -66 -162 0 -258 18 -357 66 -64 32 -153 110 -153 135 0 5 22 0 49 -11 27
-10 96 -28 153 -41z"/>
<path d="M1652 2027 c-54 -55 -62 -76 -37 -97 21 -17 49 -2 110 60 37 37 46
52 40 69 -12 39 -55 27 -113 -32z"/>
<path d="M1921 2025 c-43 -57 -47 -87 -15 -99 22 -9 37 2 79 57 43 56 44 90 4
95 -21 2 -33 -7 -68 -53z"/>
<path d="M2113 2004 c-6 -17 13 -117 28 -146 12 -22 42 -23 59 -3 9 11 9 27 0
72 -7 32 -16 66 -21 76 -12 21 -58 22 -66 1z"/>
<path d="M1350 1835 c-11 -13 -8 -26 15 -76 34 -70 47 -83 74 -74 32 10 32 33
-1 100 -34 68 -60 83 -88 50z"/>
<path d="M2295 1838 c-20 -62 -33 -121 -29 -133 8 -21 44 -29 59 -14 7 8 20
40 29 72 13 45 14 62 5 73 -14 17 -58 18 -64 2z"/>
<path d="M1686 1797 c-25 -18 -20 -164 7 -181 12 -8 22 -8 35 0 25 16 30 154
7 178 -20 19 -26 20 -49 3z"/>
<path d="M1940 1754 c-12 -14 -9 -26 25 -93 33 -63 45 -77 67 -79 44 -5 45 27
1 110 -40 77 -67 95 -93 62z"/>
<path d="M2307 1607 c-70 -43 -87 -68 -67 -92 19 -23 36 -19 111 26 76 46 92
64 78 91 -15 27 -47 20 -122 -25z"/>
<path d="M1303 1589 c-7 -7 -13 -21 -13 -30 0 -24 18 -35 78 -48 71 -15 80
-14 92 8 21 40 -4 57 -110 76 -22 4 -39 2 -47 -6z"/>
<path d="M1792 1578 c-21 -21 -13 -46 21 -71 73 -55 118 -66 131 -31 9 25 -4
41 -64 78 -64 40 -71 41 -88 24z"/>
</g>
</svg>
