<?xml version="1.0" standalone="no"?>
<!DOCTYPE svg PUBLIC "-//W3C//DTD SVG 20010904//EN"
 "http://www.w3.org/TR/2001/REC-SVG-20010904/DTD/svg10.dtd">
<svg version="1.0" xmlns="http://www.w3.org/2000/svg"
 width="288.000000pt" height="254.000000pt" viewBox="0 0 288.000000 254.000000"
 preserveAspectRatio="xMidYMid meet">

<g transform="translate(0.000000,254.000000) scale(0.100000,-0.100000)"
fill="#000000" stroke="none">
<path d="M1167 2310 c-49 -9 -97 -33 -97 -50 0 -18 18 -19 51 -2 24 12 58 17
114 17 l80 0 3 -87 c3 -82 1 -88 -17 -88 -44 0 -51 -23 -51 -159 l0 -128 -47
-18 c-25 -10 -66 -37 -89 -61 -76 -75 -75 -70 -72 -720 l3 -569 23 -37 c13
-20 40 -47 60 -60 36 -23 43 -23 307 -23 307 0 324 4 373 78 l27 41 0 590 0
591 -30 54 c-32 58 -84 103 -141 121 l-34 12 0 128 c0 136 -7 160 -51 160 -17
0 -19 8 -19 79 0 71 2 80 20 86 11 3 20 13 20 21 0 12 -12 13 -62 8 -37 -3
-111 1 -181 10 -65 9 -123 15 -130 15 -7 -1 -34 -5 -60 -9z m361 -134 l-3 -71
-85 0 -85 0 -3 69 c-2 38 -1 74 1 80 4 9 28 9 91 2 l87 -9 -3 -71z m67 -128
c3 -13 5 -70 3 -128 l-3 -105 -155 0 -155 0 -3 105 c-4 163 -18 150 158 150
147 0 150 0 155 -22z m95 -298 c24 -14 58 -45 75 -68 27 -39 30 -53 34 -128
l3 -84 -362 0 -362 0 3 83 c3 71 8 90 31 125 60 89 105 103 343 99 182 -2 192
-3 235 -27z m110 -680 l0 -370 -360 0 -360 0 0 370 0 370 360 0 360 0 0 -370z
m0 -512 c0 -119 -14 -153 -73 -181 -52 -25 -522 -25 -574 0 -59 28 -73 62 -73
181 l0 102 360 0 360 0 0 -102z"/>
<path d="M1319 1351 c-70 -45 -129 -122 -129 -169 0 -38 52 -82 97 -82 37 -1
38 -1 17 -18 -11 -10 -28 -29 -37 -43 -20 -30 -31 -132 -19 -173 l8 -30 27 47
c15 25 37 53 48 61 20 14 25 11 80 -44 60 -59 67 -76 48 -112 -6 -11 -9 -22
-6 -24 9 -9 62 17 80 39 16 20 18 21 28 4 16 -27 64 -47 111 -47 l43 0 -34 27
c-33 26 -33 26 -26 90 6 58 4 68 -21 110 -26 45 -27 50 -17 117 13 92 -2 154
-48 203 -76 79 -170 96 -250 44z m156 -20 c51 -23 102 -81 111 -126 3 -19 1
-64 -5 -101 -12 -64 -11 -69 14 -118 21 -42 26 -63 23 -114 -2 -34 -6 -62 -10
-62 -4 0 -20 18 -34 40 -15 22 -30 40 -33 40 -4 0 -12 -15 -19 -32 l-13 -33
-13 30 c-7 17 -34 49 -60 72 -27 24 -46 51 -46 63 0 36 -27 34 -67 -5 -21 -20
-39 -32 -41 -26 -7 20 20 81 40 92 11 6 31 36 45 67 13 32 33 66 43 77 36 39
43 74 22 116 -22 44 -16 47 43 20z m-81 -27 c24 -24 20 -44 -25 -107 -40 -56
-43 -58 -82 -55 -74 6 -75 58 -4 133 47 48 83 58 111 29z"/>
</g>
</svg>
