<?xml version="1.0" standalone="no"?>
<!DOCTYPE svg PUBLIC "-//W3C//DTD SVG 20010904//EN"
 "http://www.w3.org/TR/2001/REC-SVG-20010904/DTD/svg10.dtd">
<svg version="1.0" xmlns="http://www.w3.org/2000/svg"
 width="373.000000pt" height="282.000000pt" viewBox="0 0 373.000000 282.000000"
 preserveAspectRatio="xMidYMid meet">

<g transform="translate(0.000000,282.000000) scale(0.100000,-0.100000)"
fill="#000000" stroke="none">
<path d="M1518 2280 c-20 -11 -41 -27 -46 -35 -7 -14 -11 -14 -38 0 -16 8 -52
15 -80 15 -65 0 -112 -29 -139 -87 -15 -31 -27 -43 -50 -48 -49 -11 -103 -52
-125 -95 -11 -21 -20 -44 -20 -50 0 -6 -23 -33 -50 -60 -59 -57 -102 -142
-127 -250 -26 -109 -26 -501 0 -610 38 -165 121 -277 234 -320 86 -33 183 -35
386 -11 247 30 424 36 607 22 85 -7 162 -14 170 -16 12 -4 14 -18 12 -62 -3
-48 1 -64 20 -92 34 -51 71 -73 126 -79 41 -3 59 0 100 23 40 22 54 25 70 16
29 -16 98 -14 132 4 40 21 69 61 76 107 5 28 11 38 25 38 24 0 76 45 95 83 20
38 14 109 -13 145 -19 26 -19 28 -2 84 32 100 42 221 36 423 -5 207 -21 295
-72 395 -65 129 -194 200 -359 200 -28 0 -121 -9 -206 -20 -173 -22 -480 -37
-553 -26 l-47 7 35 35 c82 81 62 214 -39 263 -53 26 -110 26 -158 1z m155 -80
c36 -40 37 -96 3 -133 -23 -25 -43 -33 -96 -39 -22 -3 -25 -8 -28 -48 -4 -73
-11 -90 -45 -110 -43 -27 -77 -25 -121 5 -45 30 -62 31 -76 4 -16 -29 -70 -59
-108 -59 -69 0 -122 52 -122 120 0 69 53 120 125 120 37 0 46 11 60 73 6 31
56 67 93 67 28 0 60 -16 85 -41 28 -30 32 -28 78 34 42 55 105 58 152 7z m963
-271 c105 -40 168 -130 201 -286 21 -99 24 -448 4 -538 -26 -124 -27 -125 -80
-125 -35 0 -58 -7 -86 -26 -32 -21 -42 -24 -62 -15 -70 32 -159 -1 -196 -71
-10 -21 -26 -38 -35 -38 -10 0 -31 -9 -49 -19 -28 -18 -38 -19 -105 -8 -124
20 -599 15 -758 -7 -154 -21 -277 -24 -335 -8 -104 30 -177 107 -215 230 -57
184 -49 584 15 737 19 45 72 125 83 125 4 0 16 -16 27 -36 52 -96 188 -120
274 -48 29 24 32 24 53 10 14 -10 44 -16 79 -16 67 0 113 26 144 83 l21 37
285 4 c172 3 319 11 374 19 144 23 293 21 361 -4z m179 -1032 c20 -16 27 -33
28 -60 1 -49 -28 -79 -85 -86 l-43 -6 -1 -45 c0 -25 -6 -56 -13 -68 -24 -46
-100 -52 -137 -11 -24 26 -39 24 -63 -10 -58 -81 -175 -52 -188 47 -7 54 35
103 97 111 39 6 44 9 59 51 26 71 100 91 147 39 24 -26 53 -24 64 5 21 56 90
72 135 33z"/>
<path d="M1635 1695 c-250 -39 -431 -130 -489 -246 -33 -66 -33 -101 0 -167
53 -106 201 -189 424 -238 122 -27 478 -27 600 0 223 49 371 132 424 238 33
66 33 101 0 167 -59 118 -237 207 -494 246 -114 18 -354 18 -465 0z m495 -69
c190 -34 350 -110 400 -191 93 -151 -133 -305 -507 -346 -331 -36 -716 59
-810 200 -44 65 -23 148 50 204 92 70 261 126 442 147 104 11 317 4 425 -14z"/>
</g>
</svg>
