<?xml version="1.0" standalone="no"?>
<!DOCTYPE svg PUBLIC "-//W3C//DTD SVG 20010904//EN"
 "http://www.w3.org/TR/2001/REC-SVG-20010904/DTD/svg10.dtd">
<svg version="1.0" xmlns="http://www.w3.org/2000/svg"
 width="234.000000pt" height="282.000000pt" viewBox="0 0 234.000000 282.000000"
 preserveAspectRatio="xMidYMid meet">

<g transform="translate(0.000000,282.000000) scale(0.100000,-0.100000)"
fill="#000000" stroke="none">
<path d="M1012 2493 c-48 -23 -62 -58 -62 -153 0 -77 2 -84 28 -108 26 -26 27
-30 20 -84 -10 -75 -35 -124 -110 -206 -82 -91 -108 -133 -135 -226 -20 -69
-23 -102 -23 -237 0 -145 2 -164 30 -260 40 -136 42 -235 6 -337 -33 -96 -49
-202 -45 -303 4 -75 8 -90 37 -136 44 -69 95 -102 173 -113 108 -16 457 -12
516 5 76 23 131 67 160 132 24 51 25 63 20 167 -4 88 -12 137 -41 236 -42 142
-42 173 0 314 39 128 50 253 36 410 -16 189 -36 235 -164 373 -27 29 -58 74
-69 99 -23 52 -37 154 -22 154 6 0 18 16 28 36 14 30 16 51 10 113 -9 100 -20
115 -91 129 -88 18 -262 15 -302 -5z m306 -67 c7 -4 12 -35 12 -76 0 -58 -3
-71 -19 -80 -26 -13 -205 -13 -255 1 l-39 11 6 66 c9 92 14 95 163 90 66 -3
126 -8 132 -12z m-19 -296 c5 -30 12 -63 16 -72 5 -13 0 -19 -22 -25 -30 -8
-230 -9 -238 -1 -3 2 0 38 7 79 l12 75 107 -1 108 0 10 -55z m-119 -175 c41 0
100 3 130 7 l55 7 63 -70 c34 -39 62 -74 62 -78 0 -34 -562 -23 -596 12 -3 3
21 35 53 71 l58 66 50 -8 c28 -4 84 -7 125 -7z m-223 -211 c65 -12 133 -14
306 -11 122 2 232 7 243 11 17 6 23 3 28 -16 14 -52 27 -277 19 -343 l-8 -70
-40 -7 c-89 -16 -430 -21 -563 -8 -125 12 -133 14 -138 36 -12 48 2 318 20
372 19 59 15 58 133 36z m281 -519 c155 0 282 -3 282 -6 0 -4 -7 -26 -15 -50
-9 -24 -18 -75 -22 -114 -5 -62 -1 -88 30 -201 85 -304 52 -425 -125 -454 -99
-17 -459 -5 -500 16 -38 19 -86 87 -94 133 -11 54 13 224 42 305 35 99 42 218
16 308 -11 37 -17 70 -14 73 3 2 30 1 61 -3 31 -4 183 -7 339 -7z"/>
<path d="M901 1701 c-13 -13 -21 -40 -26 -84 -8 -75 4 -110 38 -105 24 3 31
25 40 120 6 60 4 69 -13 78 -15 8 -24 6 -39 -9z"/>
<path d="M890 1446 c-27 -33 18 -72 48 -42 13 13 14 20 6 34 -15 23 -38 26
-54 8z"/>
<path d="M1131 1066 c-9 -10 -10 -55 -4 -168 8 -145 9 -153 29 -156 40 -6 46
18 42 166 -2 99 -7 144 -17 155 -17 21 -35 22 -50 3z"/>
<path d="M972 1048 c-7 -7 -12 -39 -12 -73 0 -33 -9 -93 -20 -132 -21 -75 -19
-97 8 -108 40 -15 82 99 82 226 0 72 -9 99 -35 99 -6 0 -16 -5 -23 -12z"/>
<path d="M1317 1048 c-22 -12 -22 -76 -2 -172 18 -84 37 -116 71 -116 35 0 38
18 15 86 -10 33 -22 82 -26 109 -12 99 -22 114 -58 93z"/>
</g>
</svg>
